<svg xmlns="http://www.w3.org/2000/svg" viewBox="0 0 200 200" width="200" height="200">
  <rect width="200" height="200" rx="12" fill="#f1f5f9"/>
  <!-- Jacket front outline -->
  <path d="M58 25 L82 18 L100 16 L118 18 L142 25 L147 60 L150 130 L147 165 L53 165 L50 130 L53 60 Z" fill="none" stroke="#475569" stroke-width="2" stroke-linejoin="round"/>
  <!-- Wider lapels -->
  <path d="M82 18 L94 58 L72 65 L58 25" fill="none" stroke="#475569" stroke-width="1.5" stroke-linejoin="round"/>
  <path d="M118 18 L106 58 L128 65 L142 25" fill="none" stroke="#475569" stroke-width="1.5" stroke-linejoin="round"/>
  <!-- Overlap panel line -->
  <line x1="115" y1="58" x2="115" y2="165" stroke="#475569" stroke-width="1"/>
  <!-- Double column of buttons -->
  <circle cx="90" cy="78" r="5" fill="none" stroke="#475569" stroke-width="2"/>
  <circle cx="90" cy="78" r="1.5" fill="#475569"/>
  <circle cx="112" cy="78" r="5" fill="none" stroke="#475569" stroke-width="2"/>
  <circle cx="112" cy="78" r="1.5" fill="#475569"/>
  <circle cx="90" cy="100" r="5" fill="none" stroke="#475569" stroke-width="2"/>
  <circle cx="90" cy="100" r="1.5" fill="#475569"/>
  <circle cx="112" cy="100" r="5" fill="none" stroke="#475569" stroke-width="2"/>
  <circle cx="112" cy="100" r="1.5" fill="#475569"/>
  <circle cx="90" cy="122" r="5" fill="none" stroke="#475569" stroke-width="2"/>
  <circle cx="90" cy="122" r="1.5" fill="#475569"/>
  <circle cx="112" cy="122" r="5" fill="none" stroke="#475569" stroke-width="2"/>
  <circle cx="112" cy="122" r="1.5" fill="#475569"/>
  <!-- Label -->
  <text x="100" y="186" text-anchor="middle" font-family="system-ui, sans-serif" font-size="11" fill="#64748b">Double Row</text>
</svg>