<svg xmlns="http://www.w3.org/2000/svg" viewBox="0 0 200 200" width="200" height="200">
  <rect width="200" height="200" rx="12" fill="#f1f5f9"/>
  <!-- Jacket front outline -->
  <path d="M60 25 L85 20 L100 18 L115 20 L140 25 L145 60 L148 130 L145 165 L55 165 L52 130 L55 60 Z" fill="none" stroke="#475569" stroke-width="2" stroke-linejoin="round"/>
  <!-- Lapels -->
  <path d="M85 20 L95 55 L78 60 L60 25" fill="none" stroke="#475569" stroke-width="1.5" stroke-linejoin="round"/>
  <path d="M115 20 L105 55 L122 60 L140 25" fill="none" stroke="#475569" stroke-width="1.5" stroke-linejoin="round"/>
  <!-- Center line -->
  <line x1="100" y1="55" x2="100" y2="165" stroke="#475569" stroke-width="1" stroke-dasharray="4,3"/>
  <!-- Single column of buttons -->
  <circle cx="100" cy="78" r="5" fill="none" stroke="#475569" stroke-width="2"/>
  <circle cx="100" cy="78" r="1.5" fill="#475569"/>
  <circle cx="100" cy="100" r="5" fill="none" stroke="#475569" stroke-width="2"/>
  <circle cx="100" cy="100" r="1.5" fill="#475569"/>
  <!-- Label -->
  <text x="100" y="186" text-anchor="middle" font-family="system-ui, sans-serif" font-size="11" fill="#64748b">Single Row</text>
</svg>