<svg xmlns="http://www.w3.org/2000/svg" viewBox="0 0 200 200" width="200" height="200">
  <rect width="200" height="200" rx="12" fill="#f1f5f9"/>
  <!-- Sleeve cuff area zoomed in -->
  <path d="M40 25 L160 25 L165 140 L35 140 Z" fill="none" stroke="#475569" stroke-width="2" stroke-linejoin="round"/>
  <!-- Cuff line -->
  <line x1="40" y1="105" x2="160" y2="105" stroke="#475569" stroke-width="1.5"/>
  <!-- Decorative buttons (non-functional, sewn flat) -->
  <circle cx="65" cy="120" r="5" fill="none" stroke="#475569" stroke-width="2"/>
  <circle cx="65" cy="120" r="1.5" fill="#475569"/>
  <circle cx="88" cy="120" r="5" fill="none" stroke="#475569" stroke-width="2"/>
  <circle cx="88" cy="120" r="1.5" fill="#475569"/>
  <circle cx="111" cy="120" r="5" fill="none" stroke="#475569" stroke-width="2"/>
  <circle cx="111" cy="120" r="1.5" fill="#475569"/>
  <circle cx="134" cy="120" r="5" fill="none" stroke="#475569" stroke-width="2"/>
  <circle cx="134" cy="120" r="1.5" fill="#475569"/>
  <!-- No buttonholes - buttons are flat/sewn on -->
  <!-- Lock/sealed indicator -->
  <path d="M92 60 L92 50 Q92 42 100 42 Q108 42 108 50 L108 60" fill="none" stroke="#475569" stroke-width="2"/>
  <rect x="86" y="60" width="28" height="20" rx="3" fill="#e2e8f0" stroke="#475569" stroke-width="2"/>
  <!-- Label -->
  <text x="100" y="170" text-anchor="middle" font-family="system-ui, sans-serif" font-size="11" fill="#64748b">Decorative</text>
</svg>